<?xml version="1.0" encoding="UTF-8"?>
<svg width="319px" height="98px" viewBox="0 0 319 98" version="1.1" xmlns="http://www.w3.org/2000/svg" xmlns:xlink="http://www.w3.org/1999/xlink" preserveAspectRatio="xMidYMin">
    <!-- Generator: Sketch 57.1 (83088) - https://sketch.com -->
    <title>Artboard</title>
    <desc>Created with Sketch.</desc>
    <g id="Artboard" stroke="none" stroke-width="1" fill="none" fill-rule="evenodd">
        <g fill="#0E074E" fill-rule="nonzero">
            <path d="M12.2464467,76.2127659 L12.2464467,79.8156029 C12.2464467,85.3758865 14.3254946,88.35461 17.9139883,88.35461 C21.4455218,88.35461 23.2682488,85.5177305 23.2682488,81.8297873 L34.5748519,81.8297873 L34.5748519,83.5602837 C34.5748519,92.3262411 27.5972253,98 17.8000679,98 C6.294104,98 0,90.7943262 0,79.7304965 L0,76.2411348 C0,65.1489362 6.294104,58 17.8000679,58 C27.5972253,58 34.5748519,63.64539 34.5748519,72.4680851 L34.5748519,74.141844 L23.2682488,74.141844 C23.2682488,70.4539007 21.4455218,67.64539 17.9139883,67.64539 C14.3254946,67.64539 12.2464467,70.6241135 12.2464467,76.2127659 Z M81.7891759,79.9574469 C81.7891759,90.822695 75.3526714,98 63.4479859,98 C51.5717807,98 45.0783158,90.822695 45.0783158,79.9574469 L45.0783158,76.1560284 C45.0783158,65.1489362 51.5717807,58 63.4479859,58 C75.3526714,58 81.7891759,65.2340425 81.7891759,76.1560284 L81.7891759,79.9574469 Z M69.5427291,75.9858156 C69.5427291,70.425532 67.2358404,67.4468085 63.4479859,67.4468085 C59.6316514,67.4468085 57.3247626,70.425532 57.3247626,75.9858156 L57.3247626,80.0141844 C57.3247626,85.6028369 59.6316514,88.5531915 63.4479859,88.5531915 C67.2358404,88.5531915 69.5427291,85.6028369 69.5427291,80.0141844 L69.5427291,75.9858156 Z M104.567567,97.3475178 L94.0014464,97.3475178 L94.0014464,58.6241135 L106.504214,58.6241135 L114.820406,75.9007092 L115.219127,75.9007092 L123.5638,58.6241135 L135.952647,58.6241135 L135.952647,97.3475178 L125.215645,97.3475178 L125.215645,75.7588652 L124.674523,75.7588652 L118.067139,90 L111.801514,90 L105.137169,75.7588652 L104.567567,75.7588652 L104.567567,97.3475178 Z M167.50291,58.6241135 C177.328548,58.6241135 181.828406,65.4609929 181.828406,72.8652483 C181.828406,80.4113476 177.186147,86.8794326 167.33203,86.8794326 L161.692968,86.8794326 L161.692968,97.3475178 L149.759803,97.3475178 L149.759803,58.6241135 L167.50291,58.6241135 Z M169.752839,72.8652483 C169.752839,69.2907802 167.559871,67.4184398 164.256178,67.4184398 L161.636008,67.4184398 L161.636008,78.3120568 L164.256178,78.3120568 C167.559871,78.3120568 169.752839,76.3546099 169.752839,72.8652483 Z M200.648061,97.3475178 L188.828816,97.3475178 L200.619581,58.6241135 L215.770998,58.6241135 L227.447843,97.3475178 L214.688755,97.3475178 L213.008428,90.0283689 L202.385348,90.0283689 L200.648061,97.3475178 Z M208.081369,68.4680852 L207.483287,68.4680852 L204.350475,81.6595745 L211.100261,81.6595745 L208.081369,68.4680852 Z M248.916149,97.3475178 L237.951307,97.3475178 L237.951307,58.6241135 L246.922542,58.6241135 L260.165792,77.3475177 L260.621474,77.3475177 L260.621474,58.6241135 L271.586316,58.6241135 L271.586316,97.3475178 L262.700521,97.3475178 L249.371831,78.283688 L248.916149,78.283688 L248.916149,97.3475178 Z M305.956111,97.3475178 L293.994465,97.3475178 L293.994465,85.6879433 L280.950576,58.6241135 L293.909024,58.6241135 L299.975288,73.858156 L300.402489,73.858156 L306.525713,58.6241135 L319,58.6241135 L305.956111,85.319149 L305.956111,97.3475178 Z" id="COMPANY"></path>
            <path d="M35.1973528,13.9858156 L23.6549011,13.9858156 C23.426902,11.7163121 21.6029097,9.5319149 18.154424,9.5319149 C14.1644408,9.5319149 12.1124494,12.4822695 12.1124494,17.8439716 L12.1124494,21.929078 C12.1124494,26.2695036 13.2239447,30.4680851 18.4679227,30.4680851 C22.2299071,30.4680851 23.9968996,28.0283689 23.9968996,25.787234 L23.9968996,25.3333333 L19.1519199,25.3333333 L19.1519199,17.4468085 L35.1973528,17.4468085 L35.1973528,24.7092198 C35.1973528,32.3120568 30.5233723,40 18.1259241,40 C5.01597902,40 0,31.4609929 0,21.9858156 L0,17.7021277 C0,7.54609929 6.26997377,0 18.2399237,0 C29.896375,0 35.1973528,7.20567377 35.1973528,13.9858156 Z M58.3905557,39.3475178 L47.4181016,39.3475178 L47.4181016,0.624113476 L56.3955641,0.624113476 L69.6480086,19.3475177 L70.1040067,19.3475177 L70.1040067,0.624113476 L81.0764608,0.624113476 L81.0764608,39.3475178 L72.184498,39.3475178 L58.8465538,20.283688 L58.3905557,20.283688 L58.3905557,39.3475178 Z M122.623587,30.1843972 L122.623587,39.3475178 L94.893203,39.3475178 L94.893203,0.624113476 L122.623587,0.624113476 L122.623587,9.78723405 L106.720653,9.78723405 L106.720653,15.8865248 L121.569091,15.8865248 L121.569091,24.1702127 L106.720653,24.1702127 L106.720653,30.1843972 L122.623587,30.1843972 Z M133.932339,27.4893618 L145.161293,27.4893618 C145.218292,29.3049646 147.127784,31.2624114 150.861268,31.2624114 C154.509253,31.2624114 155.763248,29.8156029 155.763248,28.2269504 C155.763248,26.2411348 153.825257,25.5602837 150.319771,24.9361702 L145.617291,24.1134752 C139.204818,22.9787234 134.559337,19.7730497 134.559337,12.5957447 C134.559337,4.59574468 141.02881,0 150.718769,0 C161.719723,0 166.650203,6.21276596 166.650203,12.2553192 L155.820248,12.2553192 C155.763248,10.6382979 154.195755,8.59574469 150.747269,8.59574469 C147.697783,8.59574469 146.415288,9.98581561 146.415288,11.6312057 C146.415288,13.3049645 148.32478,14.1560284 151.488266,14.6382978 L156.475746,15.4042553 C161.862223,16.1985816 167.4482,18.9503547 167.4482,26.9503547 C167.4482,34.4964539 162.004722,40 150.60477,40 C137.836824,40 133.960839,33.4468085 133.932339,27.4893618 Z M191.524899,39.3475178 L179.554949,39.3475178 L179.554949,0.624113476 L191.524899,0.624113476 L191.524899,39.3475178 Z M216.314095,39.3475178 L205.341641,39.3475178 L205.341641,0.624113476 L214.319103,0.624113476 L227.571548,19.3475177 L228.027546,19.3475177 L228.027546,0.624113476 L239,0.624113476 L239,39.3475178 L230.108038,39.3475178 L216.770093,20.283688 L216.314095,20.283688 L216.314095,39.3475178 Z" id="GNESIN"></path>
            <path d="M307.292683,39.1743772 L304.882353,36.6690392 C302.873745,38.3487545 298.885222,40 293.232425,40 C283.992827,40 279,35.6441281 279,29.2099644 C279,24.3985766 281.783357,21.5516014 285.685797,19.3024911 C286.374462,18.9039146 287.091823,18.5338079 287.837876,18.1921708 C284.767576,15.1174377 282.988523,12.6690391 282.988523,9.42348755 C282.988523,3.55871886 288.756097,0 295.355811,0 C300.95122,0 307.292683,2.56227758 307.292683,9.08185054 C307.292683,14.2348754 303.332855,17.3950178 299.860832,19.3309608 L304.968437,24.797153 C305.714491,23.5729538 305.857962,21.9217082 305.857962,20.5836299 L305.857962,17.6227758 L314.667145,17.6227758 L314.667145,21.4946619 C314.667145,24.6548043 313.548063,28.58363 311.252511,31.2597865 L319,39.1743772 L307.292683,39.1743772 Z M295.097561,14.6903914 C297.249642,13.5516015 298.598279,12.0996442 298.598279,10.0498221 C298.598279,7.9430605 297.163559,6.71886121 295.384505,6.71886121 C293.519369,6.71886121 292.055954,8.05693951 292.055954,9.99288257 C292.055954,11.5017794 292.916786,12.6690391 295.097561,14.6903914 Z M291.711622,24.0284698 C290.420373,24.797153 289.10043,26.2775801 289.10043,28.2704627 C289.10043,30.86121 291.3099,32.5409252 294.43759,32.5409252 C296.446198,32.5409252 298.454806,31.8576512 299.401721,30.7758008 L292.572454,23.6014235 C292.285509,23.7153025 291.998565,23.8576513 291.711622,24.0284698 Z" id="&amp;"></path>
        </g>
    </g>
</svg>